<?xml version="1.0" encoding="UTF-8" standalone="no"?>
<!DOCTYPE svg PUBLIC "-//W3C//DTD SVG 1.1//EN" "http://www.w3.org/Graphics/SVG/1.1/DTD/svg11.dtd">
<svg width="100%" height="100%" viewBox="0 0 80 80" version="1.1" xmlns="http://www.w3.org/2000/svg" xmlns:xlink="http://www.w3.org/1999/xlink" xml:space="preserve" xmlns:serif="http://www.serif.com/" style="fill-rule:evenodd;clip-rule:evenodd;stroke-linecap:round;stroke-linejoin:round;stroke-miterlimit:1.5;">
    <g transform="matrix(2.73889,0,0,3.35374,-109.111,-130.612)">
        <ellipse cx="54.442" cy="50.872" rx="14.604" ry="11.927" style="fill:rgb(235,235,235);"/>
    </g>
    <g id="Capa1">
        <g transform="matrix(1,0,0,1,1,-8)">
            <g id="PiernaDer" transform="matrix(-0.884287,1.53163,-0.694906,-0.401204,103.682,14.3365)">
                <path d="M40.079,21.674L40.079,24.203C40.079,25.225 39.703,26.054 39.239,26.054L30.741,26.054C30.278,26.054 29.901,25.225 29.901,24.203L29.901,21.674C29.901,20.653 30.278,19.823 30.741,19.823L39.239,19.823C39.703,19.823 40.079,20.653 40.079,21.674Z"/>
            </g>
            <g id="PiernaDer1" serif:id="PiernaDer" transform="matrix(1.53163,0.884287,-0.401204,0.694906,10.1556,2.78355)">
                <path d="M40.079,21.674L40.079,24.203C40.079,25.225 39.703,26.054 39.239,26.054L30.741,26.054C30.278,26.054 29.901,25.225 29.901,24.203L29.901,21.674C29.901,20.653 30.278,19.823 30.741,19.823L39.239,19.823C39.703,19.823 40.079,20.653 40.079,21.674Z"/>
            </g>
            <g id="PiernaDer2" serif:id="PiernaDer" transform="matrix(-0.884287,1.53163,-0.694906,-0.401204,95.6822,16.3365)">
                <path d="M40.079,21.674L40.079,24.203C40.079,25.225 39.703,26.054 39.239,26.054L30.741,26.054C30.278,26.054 29.901,25.225 29.901,24.203L29.901,21.674C29.901,20.653 30.278,19.823 30.741,19.823L39.239,19.823C39.703,19.823 40.079,20.653 40.079,21.674Z"/>
            </g>
            <g id="PiernaDer3" serif:id="PiernaDer" transform="matrix(1.08826,1.00647,-0.544819,0.589095,23.225,1.66401)">
                <path d="M40.079,21.674L40.079,24.203C40.079,25.225 39.63,26.054 39.077,26.054L30.903,26.054C30.35,26.054 29.901,25.225 29.901,24.203L29.901,21.674C29.901,20.653 30.35,19.823 30.903,19.823L39.077,19.823C39.63,19.823 40.079,20.653 40.079,21.674Z"/>
            </g>
            <g id="AnterazoDer" transform="matrix(0.978803,0.0856341,-0.0699345,0.799355,31.119,16.5937)">
                <path d="M40.079,21.674L40.079,24.203C40.079,25.225 39.401,26.054 38.567,26.054L31.413,26.054C30.579,26.054 29.901,25.225 29.901,24.203L29.901,21.674C29.901,20.653 30.579,19.823 31.413,19.823L38.567,19.823C39.401,19.823 40.079,20.653 40.079,21.674Z"/>
            </g>
            <g id="BrazoDer" transform="matrix(0.694762,0.694762,-0.567389,0.567389,46.4732,-2.02161)">
                <path d="M40.079,21.674L40.079,24.203C40.079,25.225 39.401,26.054 38.567,26.054L31.413,26.054C30.579,26.054 29.901,25.225 29.901,24.203L29.901,21.674C29.901,20.653 30.579,19.823 31.413,19.823L38.567,19.823C39.401,19.823 40.079,20.653 40.079,21.674Z"/>
            </g>
            <g id="AntebrazoIzq" transform="matrix(0.694762,-0.694762,0.567389,0.567389,1.97839,44.0268)">
                <path d="M40.079,21.674L40.079,24.203C40.079,25.225 39.401,26.054 38.567,26.054L31.413,26.054C30.579,26.054 29.901,25.225 29.901,24.203L29.901,21.674C29.901,20.653 30.579,19.823 31.413,19.823L38.567,19.823C39.401,19.823 40.079,20.653 40.079,21.674Z"/>
            </g>
            <g id="BrazoIzq" transform="matrix(0.982541,0,0,0.802409,10.6208,12.0938)">
                <path d="M40.079,21.674L40.079,24.203C40.079,25.225 39.401,26.054 38.567,26.054L31.413,26.054C30.579,26.054 29.901,25.225 29.901,24.203L29.901,21.674C29.901,20.653 30.579,19.823 31.413,19.823L38.567,19.823C39.401,19.823 40.079,20.653 40.079,21.674Z"/>
            </g>
            <g id="Tronco" transform="matrix(0.979033,0.262331,-0.259598,0.968834,16.5974,-11.3513)">
                <path d="M49.841,32.286L49.841,47.241C49.841,48.616 48.736,49.733 47.375,49.733L42.442,49.733C41.08,49.733 39.975,48.616 39.975,47.241L39.975,32.286C39.975,30.91 41.08,29.793 42.442,29.793L47.375,29.793C48.736,29.793 49.841,30.91 49.841,32.286Z"/>
            </g>
            <circle id="Cabeza" cx="54.93" cy="24.912" r="4.985"/>
        </g>
        <g transform="matrix(1,0,0,1,3,-6)">
            <path d="M8.923,50.979C16.712,49.422 22.679,56.715 26.37,63.911C27.513,56.537 29.901,43.502 37.379,42.671" style="fill:none;stroke:black;stroke-width:4.82px;"/>
        </g>
        <g transform="matrix(1,0,0,1,-1,0)">
            <ellipse cx="29.953" cy="64.325" rx="9.087" ry="2.648" style="fill:rgb(235,235,235);stroke:black;stroke-width:1.33px;"/>
        </g>
    </g>
</svg>
